<?xml version="1.0" encoding="utf-8"?>
<!-- Generator: Adobe Illustrator 24.1.0, SVG Export Plug-In . SVG Version: 6.00 Build 0)  -->
<svg version="1.1" id="Layer_1" xmlns="http://www.w3.org/2000/svg" xmlns:xlink="http://www.w3.org/1999/xlink" x="0px" y="0px"
	 viewBox="0 0 252.7 52" style="enable-background:new 0 0 252.7 52;" xml:space="preserve">
<style type="text/css">
	.st0{fill:#3C366B;}
	.st1{font-family:'Salden-Titling';}
	.st2{font-size:76px;}
	.st3{fill:#FFE922;}
	.st4{fill:#E8AA14;}
</style>
<text transform="matrix(1 0 0 1 58.4634 48.9996)" class="st0 st1 st2">Bravo</text>
<g>
	<g>
		<polygon class="st3" points="0.9,39 14.1,52 27.4,39 14.1,26 14.1,39 		"/>
		<polygon class="st3" points="14.1,26 27.4,39 40.6,26 27.4,13 27.4,26 		"/>
		<polygon class="st3" points="27.4,13 40.6,26 53.9,13 40.6,0 40.6,13 		"/>
	</g>
	<polygon class="st3" points="53.9,52 53.9,13 14.1,52 	"/>
</g>
<polyline class="st4" points="37.9,23.3 27.4,13 40.6,13 40.6,26 "/>
<polyline class="st4" points="51.1,10.3 40.6,0 53.9,0 53.9,13 "/>
<polyline class="st4" points="24.7,36.3 14.1,26 27.4,26 27.4,39 "/>
<polyline class="st4" points="11.4,49.3 0.9,39 14.1,39 14.1,52 "/>
<polyline class="st3" points="3.5,41.6 14.3,51.7 1.1,52 0.8,39 "/>
</svg>
